<svg xmlns="http://www.w3.org/2000/svg" xmlns:xlink="http://www.w3.org/1999/xlink" width="249.403" height="62.982" viewBox="0 0 249.403 62.982">
  <defs>
    <radialGradient id="radial-gradient" cx="0.578" cy="0.498" r="0.922" gradientUnits="objectBoundingBox">
      <stop offset="0" stop-color="#fff"/>
      <stop offset="0.127" stop-color="#fde966"/>
      <stop offset="0.66" stop-color="#cf9102"/>
      <stop offset="1" stop-color="#8c3c10"/>
    </radialGradient>
    <radialGradient id="radial-gradient-2" cx="-0.634" cy="0.142" r="5.962" gradientUnits="objectBoundingBox">
      <stop offset="0" stop-color="#fff"/>
      <stop offset="0.33" stop-color="#fde966"/>
      <stop offset="0.66" stop-color="#cf9102"/>
      <stop offset="1" stop-color="#8c3c10"/>
    </radialGradient>
    <radialGradient id="radial-gradient-3" cx="-0.822" cy="0.5" r="2.292" xlink:href="#radial-gradient-2"/>
    <radialGradient id="radial-gradient-4" cx="0.714" cy="1.9" r="2.586" xlink:href="#radial-gradient-2"/>
    <radialGradient id="radial-gradient-5" cx="0.408" cy="0.967" r="1.861" gradientUnits="objectBoundingBox">
      <stop offset="0" stop-color="#fff"/>
      <stop offset="0.33" stop-color="#fff"/>
      <stop offset="0.66" stop-color="#fff" stop-opacity="0"/>
      <stop offset="1" stop-color="#fff" stop-opacity="0"/>
    </radialGradient>
    <radialGradient id="radial-gradient-6" cx="0.856" cy="0.698" r="0.747" xlink:href="#radial-gradient-5"/>
    <radialGradient id="radial-gradient-7" cx="0.709" cy="0.319" r="0.832" xlink:href="#radial-gradient-5"/>
    <linearGradient id="linear-gradient" x1="0.5" y1="2.697" x2="0.5" y2="0.346" gradientUnits="objectBoundingBox">
      <stop offset="0" stop-color="#fff"/>
      <stop offset="1" stop-color="#fff" stop-opacity="0"/>
    </linearGradient>
    <linearGradient id="linear-gradient-2" x1="2.239" y1="0.5" x2="0.173" y2="0.5" xlink:href="#linear-gradient"/>
    <linearGradient id="linear-gradient-3" x1="0.828" y1="-0.786" x2="0.513" y2="0.519" xlink:href="#linear-gradient"/>
    <radialGradient id="radial-gradient-8" cx="0.5" cy="-0.875" r="2.551" gradientUnits="objectBoundingBox">
      <stop offset="0" stop-color="#fff"/>
      <stop offset="0.5" stop-color="#7d7d7d"/>
      <stop offset="1" stop-color="#231916"/>
    </radialGradient>
    <radialGradient id="radial-gradient-9" cx="-0.091" cy="-0.287" r="3.325" xlink:href="#radial-gradient-8"/>
  </defs>
  <g id="Group_11978" data-name="Group 11978" transform="translate(-95.551 -230.593)">
    <g id="Group_3" data-name="Group 3" transform="translate(95.551 230.593)">
      <g id="Group_1" data-name="Group 1" transform="translate(0 13.009)">
        <path id="Path_1" data-name="Path 1" d="M97.311,290.8a31.394,31.394,0,0,1-1.76-9.586c6.423,8.673,24.726,11.978,26.341,2.819C123.693,294.318,106.155,298.688,97.311,290.8ZM119.9,278.332c13.13,14.5-9.123,25.719-20.032,17.98a31.477,31.477,0,0,0,26.906,15.541C131.445,300.4,131.281,285.037,119.9,278.332Zm38.337-2.2a31.6,31.6,0,0,1-2.481,17.155c-4.349-8.7-9.822-14.621-16.471-17.63,6.407,4.846,10.646,12.816,12.82,23.763a31.459,31.459,0,0,1-21.156,12.2c9.078-26.843-15.109-44.322-23.355-34.276.769-5.17,3.059-8.315,9.231-8.959,3.379-7.619,17.833-7.75,27.41-4.414l-3.3.257A45.61,45.61,0,0,1,158.24,276.127ZM129.6,267.342c-3.968-.052-5.56,1-8.4,1.057,2.154,1.549,3.969.906,5.006-.452A18.673,18.673,0,0,1,129.6,267.342Z" transform="translate(-95.551 -261.881)" fill-rule="evenodd" fill="url(#radial-gradient)"/>
        <path id="Path_2" data-name="Path 2" d="M95.551,308.381a31.615,31.615,0,0,0,.351,3.942c7.787,7.309,25.59,7.97,25.99-1.123C120.277,320.359,101.974,317.054,95.551,308.381Z" transform="translate(-95.551 -289.047)" fill-rule="evenodd" fill="url(#radial-gradient-2)"/>
        <path id="Path_3" data-name="Path 3" d="M125.973,301.447c13.13,14.5-9.123,25.719-20.032,17.98a31.648,31.648,0,0,0,6.632,7.932C128.632,328.582,138.289,311.606,125.973,301.447Z" transform="translate(-101.621 -284.996)" fill-rule="evenodd" fill="url(#radial-gradient-3)"/>
        <path id="Path_4" data-name="Path 4" d="M124.52,292.046c8.246-10.046,32.433,7.433,23.355,34.276a31.272,31.272,0,0,0,11.037-3.531C159.8,295.156,132.5,278.053,124.52,292.046Z" transform="translate(-112.475 -276.59)" fill-rule="evenodd" fill="url(#radial-gradient-4)"/>
        <path id="Path_5" data-name="Path 5" d="M96.4,316.284c7.787,7.309,25.59,7.97,25.99-1.123C121.465,323.944,105.051,323.118,96.4,316.284Z" transform="translate(-96.045 -293.007)" fill-rule="evenodd" fill="url(#radial-gradient-5)"/>
        <path id="Path_6" data-name="Path 6" d="M135.291,301.447c11.686,9.816,1.962,26.755-13.4,25.912C137.95,328.582,147.607,311.606,135.291,301.447Z" transform="translate(-110.939 -284.996)" fill-rule="evenodd" fill="url(#radial-gradient-6)"/>
        <path id="Path_7" data-name="Path 7" d="M133.04,288.364c10.055-5.257,30.166,9.418,30.849,34.426C164.669,298.408,143.514,282.223,133.04,288.364Z" transform="translate(-117.452 -276.589)" fill-rule="evenodd" fill="url(#radial-gradient-7)"/>
        <path id="Path_8" data-name="Path 8" d="M100.27,326.551q.224.788.491,1.565c5.65,4.883,17.9,5.367,22.139-1.239C117.273,332.674,106.686,331.193,100.27,326.551Z" transform="translate(-98.308 -299.662)" fill-rule="evenodd" fill="url(#linear-gradient)"/>
        <path id="Path_9" data-name="Path 9" d="M149.781,342.182a30.687,30.687,0,0,0,8.134,1.31c3.162-8.1,4-18.619-.623-26.056C162.238,327.67,155.633,338.548,149.781,342.182Z" transform="translate(-127.233 -294.336)" fill-rule="evenodd" fill="url(#linear-gradient-2)"/>
        <path id="Path_10" data-name="Path 10" d="M172.116,264.867l2.59-.2c-5.7-1.188-14.13-1.446-19.015,1.782,12.659-4.995,28.116,5.325,37.151,15.6a30.911,30.911,0,0,0-.237-4.432A43.48,43.48,0,0,0,172.116,264.867Z" transform="translate(-130.686 -263.031)" fill-rule="evenodd" fill="url(#linear-gradient-3)"/>
      </g>
      <g id="Group_2" data-name="Group 2" transform="translate(0.073)">
        <path id="Path_11" data-name="Path 11" d="M127.134,230.593a31.493,31.493,0,0,0-31.407,29.17,17.578,17.578,0,0,0,3.651,3.431,27.782,27.782,0,0,1,52.474-13.8,41.937,41.937,0,0,1,5.636,4.268A31.5,31.5,0,0,0,127.134,230.593Z" transform="translate(-95.727 -230.593)" fill-rule="evenodd" fill="url(#radial-gradient-8)"/>
        <path id="Path_12" data-name="Path 12" d="M129.628,235.059A29.635,29.635,0,0,0,100,264.285a19.785,19.785,0,0,0,1.876,1.518,27.782,27.782,0,0,1,52.474-13.8c1.019.648,2.006,1.333,2.949,2.046A29.645,29.645,0,0,0,129.628,235.059Z" transform="translate(-98.221 -233.202)" fill-rule="evenodd" fill="url(#radial-gradient-9)"/>
      </g>
    </g>
    <g id="Group_6" data-name="Group 6" transform="translate(171.862 249.898)">
      <g id="Group_4" data-name="Group 4">
        <path id="Path_13" data-name="Path 13" d="M280.705,283.063c0-2.911,0-3.433-.037-4.03-.037-.635-.187-.933-.8-1.064a3.485,3.485,0,0,0-.635-.056c-.075,0-.149-.037-.149-.112,0-.112.093-.149.3-.149.839,0,1.959.056,2.108.056.41,0,1.493-.056,2.351-.056,2.333,0,3.172.784,3.471,1.063a3.243,3.243,0,0,1,.933,2.221,4.331,4.331,0,0,1-4.59,4.441,2.805,2.805,0,0,1-.392-.018c-.093,0-.2-.037-.2-.131,0-.15.112-.168.5-.168a3.1,3.1,0,0,0,3.228-3.041,3.959,3.959,0,0,0-1.045-2.874,3.24,3.24,0,0,0-2.556-.933,2.3,2.3,0,0,0-.8.112c-.112.037-.149.168-.149.355v7.669c0,1.791,0,3.265.093,4.049.056.541.168.952.728,1.027a8.21,8.21,0,0,0,.839.074c.112,0,.149.056.149.112,0,.093-.094.149-.3.149-1.026,0-2.2-.056-2.3-.056-.056,0-1.232.056-1.791.056-.205,0-.3-.037-.3-.149,0-.056.037-.112.149-.112a2.9,2.9,0,0,0,.56-.074c.373-.075.467-.485.541-1.027.093-.784.093-2.258.093-4.049Z" transform="translate(-279.082 -277.39)" fill="#76777a"/>
        <path id="Path_14" data-name="Path 14" d="M310.6,283.063c0-2.911,0-3.433-.037-4.03-.037-.635-.187-.933-.8-1.064a3.481,3.481,0,0,0-.634-.056c-.075,0-.149-.037-.149-.112,0-.112.093-.149.3-.149.84,0,2.015.056,2.108.056.205,0,1.623-.056,2.2-.056a5.748,5.748,0,0,1,3.415.821,3.266,3.266,0,0,1,1.287,2.538c0,1.381-.578,2.762-2.258,4.311,1.53,1.959,2.8,3.62,3.881,4.777a3.856,3.856,0,0,0,2.276,1.343,4.466,4.466,0,0,0,.728.056c.094,0,.168.056.168.112,0,.112-.112.149-.448.149h-1.325a3.8,3.8,0,0,1-2-.354,9.751,9.751,0,0,1-2.519-2.743c-.784-1.027-1.661-2.276-2.034-2.762a.3.3,0,0,0-.242-.112l-2.3-.037c-.093,0-.131.056-.131.149v.448c0,1.791,0,3.265.093,4.049.056.541.168.952.728,1.027a8.21,8.21,0,0,0,.84.074c.112,0,.149.056.149.112,0,.093-.093.149-.3.149-1.026,0-2.2-.056-2.295-.056-.019,0-1.195.056-1.754.056-.2,0-.3-.037-.3-.149,0-.056.037-.112.149-.112a2.91,2.91,0,0,0,.56-.074c.373-.075.466-.485.541-1.027.093-.784.093-2.258.093-4.049Zm1.493,1.623a.243.243,0,0,0,.131.224,5.142,5.142,0,0,0,1.959.3,2.417,2.417,0,0,0,1.4-.355,3.406,3.406,0,0,0,1.138-2.874c0-2.332-1.232-3.732-3.228-3.732a5.629,5.629,0,0,0-1.25.112.225.225,0,0,0-.149.224Z" transform="translate(-296.544 -277.39)" fill="#76777a"/>
        <path id="Path_15" data-name="Path 15" d="M347.394,286.347c0,1.791,0,3.265.094,4.049.056.541.168.952.728,1.027a8.21,8.21,0,0,0,.84.074c.112,0,.149.056.149.112,0,.093-.093.149-.3.149-1.026,0-2.2-.056-2.3-.056s-1.269.056-1.828.056c-.205,0-.3-.037-.3-.149,0-.056.037-.112.149-.112a2.906,2.906,0,0,0,.56-.074c.373-.075.467-.485.541-1.027.093-.784.093-2.258.093-4.049v-3.284c0-2.911,0-3.433-.037-4.03-.037-.635-.224-.952-.635-1.045a2.46,2.46,0,0,0-.578-.074c-.075,0-.149-.037-.149-.112,0-.112.093-.149.3-.149.616,0,1.791.056,1.884.056s1.269-.056,1.829-.056c.205,0,.3.037.3.149,0,.074-.074.112-.149.112a2.771,2.771,0,0,0-.467.056c-.5.093-.653.41-.69,1.064-.037.6-.037,1.119-.037,4.03Z" transform="translate(-317.257 -277.39)" fill="#76777a"/>
        <path id="Path_16" data-name="Path 16" d="M371.8,277.023c4.2,0,7.333,2.65,7.333,7a7.324,7.324,0,0,1-7.445,7.631c-5.113,0-7.24-3.975-7.24-7.333A7.224,7.224,0,0,1,371.8,277.023Zm.392,13.92c1.679,0,5.15-.971,5.15-6.4,0-4.478-2.724-6.885-5.673-6.885-3.116,0-5.449,2.052-5.449,6.139C366.22,288.144,368.832,290.943,372.191,290.943Z" transform="translate(-328.953 -277.023)" fill="#76777a"/>
        <path id="Path_17" data-name="Path 17" d="M409.255,283.063c0-2.911,0-3.433-.037-4.03-.037-.635-.187-.933-.8-1.064a3.486,3.486,0,0,0-.635-.056c-.074,0-.149-.037-.149-.112,0-.112.093-.149.3-.149.839,0,2.015.056,2.108.056.2,0,1.623-.056,2.2-.056a5.749,5.749,0,0,1,3.415.821,3.267,3.267,0,0,1,1.287,2.538c0,1.381-.578,2.762-2.257,4.311,1.53,1.959,2.8,3.62,3.881,4.777a3.858,3.858,0,0,0,2.276,1.343,4.467,4.467,0,0,0,.728.056c.093,0,.168.056.168.112,0,.112-.112.149-.448.149h-1.324a3.8,3.8,0,0,1-2-.354,9.739,9.739,0,0,1-2.519-2.743c-.784-1.027-1.661-2.276-2.034-2.762a.3.3,0,0,0-.242-.112l-2.3-.037c-.093,0-.131.056-.131.149v.448c0,1.791,0,3.265.094,4.049.056.541.168.952.728,1.027a8.21,8.21,0,0,0,.839.074c.112,0,.149.056.149.112,0,.093-.093.149-.3.149-1.026,0-2.2-.056-2.3-.056-.019,0-1.194.056-1.754.056-.2,0-.3-.037-.3-.149,0-.056.037-.112.149-.112a2.907,2.907,0,0,0,.56-.074c.373-.075.466-.485.541-1.027.093-.784.093-2.258.093-4.049Zm1.493,1.623a.243.243,0,0,0,.131.224,5.141,5.141,0,0,0,1.959.3,2.418,2.418,0,0,0,1.4-.355,3.407,3.407,0,0,0,1.138-2.874c0-2.332-1.232-3.732-3.228-3.732a5.627,5.627,0,0,0-1.25.112.225.225,0,0,0-.149.224Z" transform="translate(-354.182 -277.39)" fill="#76777a"/>
        <path id="Path_18" data-name="Path 18" d="M447.22,286.347c0,1.791,0,3.265.093,4.049.056.541.168.952.728,1.027a8.217,8.217,0,0,0,.84.074c.111,0,.149.056.149.112,0,.093-.093.149-.3.149-1.026,0-2.2-.056-2.295-.056s-1.269.056-1.829.056c-.2,0-.3-.037-.3-.149,0-.056.037-.112.149-.112a2.907,2.907,0,0,0,.56-.074c.373-.075.466-.485.541-1.027.093-.784.093-2.258.093-4.049v-3.284c0-2.911,0-3.433-.037-4.03-.037-.635-.224-.952-.635-1.045a2.46,2.46,0,0,0-.578-.074c-.074,0-.149-.037-.149-.112,0-.112.094-.149.3-.149.616,0,1.791.056,1.885.056s1.269-.056,1.828-.056c.206,0,.3.037.3.149,0,.074-.074.112-.149.112a2.762,2.762,0,0,0-.466.056c-.5.093-.653.41-.69,1.064-.037.6-.037,1.119-.037,4.03Z" transform="translate(-375.576 -277.39)" fill="#76777a"/>
        <path id="Path_19" data-name="Path 19" d="M470.471,285.98c0,1.791,0,3.265.093,4.049.056.541.168.952.728,1.027a8.224,8.224,0,0,0,.84.074c.111,0,.149.056.149.112,0,.093-.094.149-.3.149-1.027,0-2.2-.056-2.295-.056s-1.269.056-1.829.056c-.2,0-.3-.037-.3-.149,0-.056.037-.112.15-.112a2.912,2.912,0,0,0,.56-.074c.373-.075.466-.485.541-1.027.094-.784.094-2.258.094-4.049v-7.893l-2.762.037c-1.157.019-1.6.149-1.9.6a3.318,3.318,0,0,0-.317.578c-.056.149-.112.187-.186.187-.056,0-.093-.056-.093-.168,0-.187.373-1.791.41-1.94.037-.112.112-.355.186-.355a3.5,3.5,0,0,0,.821.224c.541.056,1.25.093,1.474.093h7a9.82,9.82,0,0,0,1.325-.093,4.491,4.491,0,0,1,.522-.094c.094,0,.094.112.094.224,0,.56-.056,1.847-.056,2.053,0,.168-.056.242-.13.242-.094,0-.131-.056-.15-.317l-.019-.205c-.074-.56-.5-.989-2.295-1.026l-2.351-.037Z" transform="translate(-386.903 -277.023)" fill="#76777a"/>
        <path id="Path_20" data-name="Path 20" d="M501.205,286.925a3.958,3.958,0,0,0-.429-1.959c-.131-.3-2.631-4.4-3.284-5.374a5.224,5.224,0,0,0-1.269-1.381,1.783,1.783,0,0,0-.8-.3c-.094,0-.187-.037-.187-.131,0-.075.075-.131.243-.131.355,0,1.754.056,1.847.056.131,0,.84-.056,1.567-.056.205,0,.243.056.243.131s-.112.093-.28.168a.377.377,0,0,0-.242.336,1.6,1.6,0,0,0,.242.728c.3.541,3.1,5.355,3.434,5.9.355-.783,2.724-4.87,3.1-5.486a1.822,1.822,0,0,0,.317-.952c0-.261-.075-.467-.3-.522-.168-.056-.279-.093-.279-.187,0-.075.111-.112.3-.112.485,0,1.082.056,1.232.056.112,0,1.455-.056,1.81-.056.131,0,.243.037.243.112,0,.094-.094.149-.243.149a1.778,1.778,0,0,0-.859.261,3.561,3.561,0,0,0-.989.952,59.508,59.508,0,0,0-3.564,5.933,4.465,4.465,0,0,0-.28,1.866v1.6c0,.3,0,1.082.056,1.866.037.541.205.952.765,1.027a8.232,8.232,0,0,0,.84.074c.112,0,.15.056.15.112,0,.093-.094.149-.3.149-1.027,0-2.2-.056-2.3-.056s-1.268.056-1.828.056c-.2,0-.3-.037-.3-.149,0-.056.037-.112.149-.112a2.9,2.9,0,0,0,.56-.074c.373-.075.541-.485.579-1.027.056-.784.056-1.568.056-1.866Z" transform="translate(-405.359 -277.39)" fill="#76777a"/>
        <path id="Path_21" data-name="Path 21" d="M560.126,286.633c0-1.511-.093-1.717-.839-1.922a3.485,3.485,0,0,0-.635-.056c-.074,0-.149-.037-.149-.112,0-.112.094-.149.3-.149.839,0,2.015.056,2.108.056s1.269-.056,1.829-.056c.205,0,.3.037.3.149,0,.075-.074.112-.149.112a2.753,2.753,0,0,0-.466.056c-.5.094-.653.411-.691,1.064-.037.6-.037,1.157-.037,1.941v2.09c0,.839-.018.877-.242,1.007a10.161,10.161,0,0,1-10.095-1.157,7.282,7.282,0,0,1-2.22-5.318,7.072,7.072,0,0,1,3.116-6.139,9.16,9.16,0,0,1,4.963-1.176,16,16,0,0,1,2.855.317,9.26,9.26,0,0,0,1.511.187c.187.019.224.093.224.168a23.7,23.7,0,0,0-.13,2.649c0,.3-.037.392-.168.392-.094,0-.112-.112-.131-.28a2.861,2.861,0,0,0-.392-1.232c-.467-.709-1.978-1.511-4.385-1.511a5.331,5.331,0,0,0-5.84,5.971,7.611,7.611,0,0,0,1.978,5.169,6.791,6.791,0,0,0,4.889,2,5.093,5.093,0,0,0,2.127-.392.677.677,0,0,0,.373-.653Z" transform="translate(-436.849 -277.023)" fill="#76777a"/>
        <path id="Path_22" data-name="Path 22" d="M597.417,277.023c4.2,0,7.333,2.65,7.333,7a7.324,7.324,0,0,1-7.445,7.631c-5.113,0-7.24-3.975-7.24-7.333A7.224,7.224,0,0,1,597.417,277.023Zm.392,13.92c1.679,0,5.15-.971,5.15-6.4,0-4.478-2.725-6.885-5.672-6.885-3.116,0-5.449,2.052-5.449,6.139C591.838,288.144,594.45,290.943,597.809,290.943Z" transform="translate(-460.76 -277.023)" fill="#76777a"/>
        <path id="Path_23" data-name="Path 23" d="M636.081,286.385c0,2.743.075,3.937.411,4.273.3.3.784.429,2.239.429.989,0,1.81-.019,2.257-.56a2.6,2.6,0,0,0,.485-1.119c.019-.15.056-.243.168-.243.094,0,.112.075.112.28a11.865,11.865,0,0,1-.28,1.866c-.131.429-.186.5-1.175.5-2.687,0-3.918-.112-5-.112-.075,0-.392.019-.765.019-.373.019-.784.037-1.064.037-.2,0-.3-.037-.3-.149,0-.056.037-.112.15-.112a2.906,2.906,0,0,0,.56-.074c.373-.075.466-.485.541-1.027.094-.784.094-2.258.094-4.049v-3.284c0-2.911,0-3.433-.037-4.03-.037-.635-.187-.933-.8-1.064a3.482,3.482,0,0,0-.634-.056c-.074,0-.149-.037-.149-.112,0-.112.093-.149.3-.149.84,0,2.015.056,2.109.056s1.455-.056,2.015-.056c.205,0,.3.037.3.149,0,.074-.075.112-.149.112a4.369,4.369,0,0,0-.616.056c-.541.093-.69.41-.728,1.064-.037.6-.037,1.119-.037,4.03Z" transform="translate(-485.779 -277.39)" fill="#76777a"/>
        <path id="Path_24" data-name="Path 24" d="M662.743,283.059c0-2.911,0-3.433-.037-4.03-.037-.635-.187-.933-.8-1.064a3.477,3.477,0,0,0-.635-.056c-.074,0-.149-.037-.149-.112,0-.112.093-.149.3-.149.84,0,2.015.056,2.109.056.224,0,1.4-.056,2.519-.056,1.847,0,5.262-.168,7.483,2.127a6.667,6.667,0,0,1,1.81,4.739,7.629,7.629,0,0,1-2.015,5.262,7.413,7.413,0,0,1-5.654,2.146c-1.6,0-3.956-.224-4.142-.224-.093,0-1.269.056-1.829.056-.205,0-.3-.037-.3-.149,0-.056.037-.112.149-.112a2.9,2.9,0,0,0,.56-.074c.373-.075.467-.485.541-1.027.093-.784.093-2.258.093-4.049Zm1.568,2.015c0,1.978.019,3.694.037,4.049a4.077,4.077,0,0,0,.2,1.418c.243.355.97.746,3.172.746a6.261,6.261,0,0,0,4.441-1.736,6.529,6.529,0,0,0,1.492-4.459,6.672,6.672,0,0,0-1.791-4.7c-1.754-1.847-3.881-2.109-6.1-2.109a4.968,4.968,0,0,0-1.213.131.338.338,0,0,0-.224.373c-.019.634-.019,2.538-.019,3.975Z" transform="translate(-502.271 -277.387)" fill="#76777a"/>
      </g>
      <line id="Line_1" data-name="Line 1" x2="172.988" transform="translate(0.105 19.377)" fill="none" stroke="#eba900" stroke-width="2"/>
      <g id="Group_5" data-name="Group 5" transform="translate(0.094 24.346)">
        <path id="Path_25" data-name="Path 25" d="M281.987,336.565h-.157l-.059-.128a.676.676,0,0,0-.728-.454h-.495c-.093,0-.128.047-.128.14v1.351h.693c.292,0,.367-.134.431-.373h.146a5.243,5.243,0,0,0,0,.956h-.146c-.064-.233-.14-.379-.431-.379h-.693v1.287c0,.2.111.268.419.291v.163c-.5-.017-1.031-.017-1.532,0v-.163c.314-.023.425-.087.425-.291V336.2c0-.169-.1-.21-.414-.233V335.8H281.8c.076,0,.088.017.1.1Z" transform="translate(-279.308 -335.708)" fill="#76777a"/>
        <path id="Path_26" data-name="Path 26" d="M294.695,337.488a1.693,1.693,0,1,1-1.689-1.911A1.728,1.728,0,0,1,294.695,337.488Zm-.728.157c0-1.066-.431-1.864-1.054-1.864-.448,0-.85.425-.85,1.514,0,1.066.431,1.87,1.037,1.87C293.565,339.165,293.967,338.734,293.967,337.645Z" transform="translate(-286.334 -335.577)" fill="#76777a"/>
        <path id="Path_27" data-name="Path 27" d="M307.818,339.279l-.122.186a1.5,1.5,0,0,1-1.351-.74l-.53-.751c-.012,0-.029.006-.047.006l-.146.023v.961c0,.2.1.268.408.291v.163c-.5-.017-1.007-.017-1.508,0v-.163c.314-.023.414-.087.414-.291V336.25c0-.169-.087-.262-.39-.286V335.8c.536.023,1.089,0,1.427,0,1.229,0,1.549.454,1.549.961,0,.489-.309.857-1.095,1.084l.489.687C307.231,338.982,307.556,339.255,307.818,339.279Zm-2.2-1.474.146-.017c.821-.1,1.077-.489,1.077-1a.72.72,0,0,0-.775-.81h-.449Z" transform="translate(-294.038 -335.708)" fill="#76777a"/>
        <path id="Path_28" data-name="Path 28" d="M328.282,339.214v.163c-.524-.017-1.066-.017-1.59,0v-.163c.39-.029.437-.116.35-.349l-.245-.67h-1.223l-.233.693c-.075.221.152.3.53.326v.163c-.431-.017-.932-.017-1.357,0v-.163c.384-.029.53-.145.623-.413l1.06-3.069h.4l1.113,3.017C327.822,339.045,327.874,339.185,328.282,339.214ZM326.727,338l-.57-1.561L325.638,338Z" transform="translate(-305.718 -335.667)" fill="#76777a"/>
        <path id="Path_29" data-name="Path 29" d="M341.557,338.464a3.4,3.4,0,0,0-.18.955c-.909-.017-1.712-.017-2.586,0v-.163c.314-.023.413-.087.413-.291v-2.708c0-.2-.111-.268-.425-.291V335.8c.5.017,1.031.017,1.532,0v.163c-.309.024-.419.087-.419.291v2.708c0,.2.035.262.21.262h.32c.437,0,.612-.105.763-.379l.2-.384Z" transform="translate(-314.051 -335.708)" fill="#76777a"/>
        <path id="Path_30" data-name="Path 30" d="M353.163,338.464a3.4,3.4,0,0,0-.18.955c-.908-.017-1.712-.017-2.586,0v-.163c.314-.023.413-.087.413-.291v-2.708c0-.2-.111-.268-.425-.291V335.8c.5.017,1.031.017,1.532,0v.163c-.309.024-.419.087-.419.291v2.708c0,.2.035.262.21.262h.32c.437,0,.612-.105.763-.379l.2-.384Z" transform="translate(-320.832 -335.708)" fill="#76777a"/>
        <path id="Path_31" data-name="Path 31" d="M373.192,337.488a1.693,1.693,0,1,1-1.689-1.911A1.728,1.728,0,0,1,373.192,337.488Zm-.728.157c0-1.066-.431-1.864-1.054-1.864-.449,0-.85.425-.85,1.514,0,1.066.431,1.87,1.037,1.87C372.062,339.165,372.464,338.734,372.464,337.645Z" transform="translate(-332.192 -335.577)" fill="#76777a"/>
        <path id="Path_32" data-name="Path 32" d="M385.7,336.565h-.157l-.058-.128a.676.676,0,0,0-.728-.454h-.495c-.093,0-.128.047-.128.14v1.351h.693c.291,0,.367-.134.431-.373h.146a5.243,5.243,0,0,0,0,.956h-.146c-.064-.233-.14-.379-.431-.379h-.693v1.287c0,.2.111.268.419.291v.163c-.5-.017-1.031-.017-1.532,0v-.163c.314-.023.425-.087.425-.291V336.2c0-.169-.1-.21-.414-.233V335.8h2.481c.076,0,.088.017.1.1Z" transform="translate(-339.897 -335.708)" fill="#76777a"/>
        <path id="Path_33" data-name="Path 33" d="M405.575,335.8v.163a.6.6,0,0,0-.588.355l-.8,1.555V338.9c0,.262.111.332.425.35v.169c-.506-.017-1.037-.017-1.543,0v-.163c.321-.023.432-.093.432-.355v-.978L402.6,336.3a.487.487,0,0,0-.489-.332V335.8q.769.017,1.538,0v.163c-.314.017-.384.129-.274.338l.711,1.322.681-1.311c.122-.239-.041-.332-.361-.35V335.8C404.8,335.813,405.191,335.813,405.575,335.8Z" transform="translate(-351.053 -335.708)" fill="#76777a"/>
        <path id="Path_34" data-name="Path 34" d="M418.271,337.488a1.693,1.693,0,1,1-1.689-1.911A1.728,1.728,0,0,1,418.271,337.488Zm-.728.157c0-1.066-.431-1.864-1.054-1.864-.448,0-.85.425-.85,1.514,0,1.066.431,1.87,1.037,1.87C417.142,339.165,417.543,338.734,417.543,337.645Z" transform="translate(-358.528 -335.577)" fill="#76777a"/>
        <path id="Path_35" data-name="Path 35" d="M431.46,336.256v2.76c0,.146.111.216.419.239v.163c-.5-.017-.862-.017-1.211,0v-.163c.07-.046.1-.134.1-.309v-.169a1.252,1.252,0,0,1-1.159.7,1.085,1.085,0,0,1-1.159-1.159v-2.062c0-.2-.111-.268-.425-.291V335.8c.5.017,1.031.017,1.532,0v.163c-.309.024-.42.087-.42.291v2.062c0,.571.244.92.687.92a1.12,1.12,0,0,0,.944-.739v-2.242c0-.2-.111-.268-.425-.291V335.8c.5.017,1.031.017,1.532,0v.163C431.57,335.988,431.46,336.052,431.46,336.256Z" transform="translate(-366.192 -335.708)" fill="#76777a"/>
        <path id="Path_36" data-name="Path 36" d="M445.619,339.279l-.122.186a1.5,1.5,0,0,1-1.351-.74l-.53-.751c-.012,0-.03.006-.047.006l-.145.023v.961c0,.2.1.268.407.291v.163c-.5-.017-1.008-.017-1.508,0v-.163c.314-.023.413-.087.413-.291V336.25c0-.169-.087-.262-.39-.286V335.8c.536.023,1.089,0,1.427,0,1.229,0,1.549.454,1.549.961,0,.489-.309.857-1.1,1.084l.489.687C445.031,338.982,445.357,339.255,445.619,339.279Zm-2.2-1.474.145-.017c.822-.1,1.078-.489,1.078-1a.72.72,0,0,0-.775-.81h-.448Z" transform="translate(-374.542 -335.708)" fill="#76777a"/>
        <path id="Path_37" data-name="Path 37" d="M463.948,338.964c0,.2.1.268.408.291v.163c-.5-.017-1.008-.017-1.509,0v-.163c.314-.023.413-.087.413-.291V336.25c0-.169-.087-.262-.39-.286V335.8c.536.023,1.089,0,1.427,0,1.229,0,1.55.454,1.55.961,0,.606-.472,1.031-1.753,1.217l-.146.023Zm.146-1.176c.821-.1,1.078-.489,1.078-1a.721.721,0,0,0-.775-.81h-.448v1.823Z" transform="translate(-386.533 -335.708)" fill="#76777a"/>
        <path id="Path_38" data-name="Path 38" d="M478.533,339.279l-.122.186a1.5,1.5,0,0,1-1.351-.74l-.53-.751c-.012,0-.03.006-.047.006l-.145.023v.961c0,.2.1.268.407.291v.163c-.5-.017-1.008-.017-1.508,0v-.163c.314-.023.413-.087.413-.291V336.25c0-.169-.087-.262-.39-.286V335.8c.536.023,1.089,0,1.427,0,1.229,0,1.549.454,1.549.961,0,.489-.309.857-1.1,1.084l.489.687C477.945,338.982,478.271,339.255,478.533,339.279Zm-2.2-1.474.145-.017c.822-.1,1.078-.489,1.078-1a.72.72,0,0,0-.775-.81h-.448Z" transform="translate(-393.771 -335.708)" fill="#76777a"/>
        <path id="Path_39" data-name="Path 39" d="M490.884,338.464a3.39,3.39,0,0,0-.181.955c-.909-.017-1.712-.017-2.586,0v-.163c.314-.023.413-.087.413-.291V336.2c0-.169-.1-.21-.413-.233V335.8H490.6c.076,0,.087.017.1.1l.087.658h-.157l-.058-.128a.677.677,0,0,0-.728-.454h-.5c-.093,0-.128.047-.128.14v1.34h.693c.291,0,.367-.14.431-.379h.145a5.375,5.375,0,0,0,0,.961h-.145c-.064-.239-.14-.384-.431-.384h-.693v1.3c0,.2.035.262.21.262h.32c.437,0,.612-.105.763-.379l.2-.384Z" transform="translate(-401.296 -335.708)" fill="#76777a"/>
        <path id="Path_40" data-name="Path 40" d="M503.1,338.308a1.347,1.347,0,0,1-1.4,1.06,1.772,1.772,0,0,1-1.77-1.916,1.727,1.727,0,0,1,1.718-1.876c.408,0,.536.128.88.128a1.014,1.014,0,0,0,.239-.03,4.187,4.187,0,0,0,.257,1h-.315c-.233-.548-.576-.891-1.078-.891-.559,0-.972.419-.972,1.491s.425,1.858,1.194,1.858a1.054,1.054,0,0,0,1.008-.827Z" transform="translate(-408.199 -335.577)" fill="#76777a"/>
        <path id="Path_41" data-name="Path 41" d="M514.107,339.255v.163c-.5-.017-1.031-.017-1.532,0v-.163c.314-.023.425-.087.425-.291v-2.708c0-.2-.111-.268-.425-.291V335.8c.5.017,1.031.017,1.532,0v.163c-.308.024-.419.087-.419.291v2.708C513.687,339.168,513.8,339.232,514.107,339.255Z" transform="translate(-415.584 -335.708)" fill="#76777a"/>
        <path id="Path_42" data-name="Path 42" d="M524.642,337.488a1.693,1.693,0,1,1-1.688-1.911A1.728,1.728,0,0,1,524.642,337.488Zm-.728.157c0-1.066-.431-1.864-1.054-1.864-.448,0-.85.425-.85,1.514,0,1.066.431,1.87,1.037,1.87C523.513,339.165,523.914,338.734,523.914,337.645Z" transform="translate(-420.671 -335.577)" fill="#76777a"/>
        <path id="Path_43" data-name="Path 43" d="M537.746,336.256v2.76c0,.146.111.216.419.239v.163c-.5-.017-.862-.017-1.211,0v-.163c.07-.046.1-.134.1-.309v-.169a1.252,1.252,0,0,1-1.159.7,1.085,1.085,0,0,1-1.159-1.159v-2.062c0-.2-.111-.268-.425-.291V335.8c.5.017,1.031.017,1.532,0v.163c-.309.024-.42.087-.42.291v2.062c0,.571.244.92.687.92a1.119,1.119,0,0,0,.943-.739v-2.242c0-.2-.111-.268-.425-.291V335.8c.5.017,1.031.017,1.531,0v.163C537.856,335.988,537.746,336.052,537.746,336.256Z" transform="translate(-428.285 -335.708)" fill="#76777a"/>
        <path id="Path_44" data-name="Path 44" d="M549.592,337.715c-.548-.256-1.025-.583-1.025-1.176a.985.985,0,0,1,1.118-.961,3.336,3.336,0,0,1,.711.134c.064,0,.111-.012.134-.087h.192l.041.8H550.6c-.233-.495-.536-.641-.833-.641a.538.538,0,0,0-.6.542c0,.344.257.548.693.757.46.216,1.194.489,1.194,1.235a1.113,1.113,0,0,1-1.212,1.042c-.46,0-.681-.233-.868-.233a.209.209,0,0,0-.2.157h-.2l-.052-.85h.187a1.12,1.12,0,0,0,1.025.7.583.583,0,0,0,.658-.588C550.4,338.157,550.087,337.947,549.592,337.715Z" transform="translate(-436.587 -335.577)" fill="#76777a"/>
        <path id="Path_45" data-name="Path 45" d="M571.445,339.255v.163c-.5-.017-1.031-.017-1.532,0v-.163c.315-.023.425-.075.425-.32V336.4l-1.118,3.023h-.076l-1.229-3.023v2.539c0,.245.216.292.583.32v.163c-.466-.017-.932-.017-1.38,0v-.163c.361-.029.565-.075.565-.32v-2.6c0-.233-.175-.349-.489-.373V335.8c.378.017.774.017,1.153,0l1.042,2.551.938-2.551c.373.017.734.017,1.112,0v.163c-.308.024-.42.087-.42.309v2.661C571.019,339.18,571.13,339.232,571.445,339.255Z" transform="translate(-447.448 -335.708)" fill="#76777a"/>
        <path id="Path_46" data-name="Path 46" d="M585.047,338.464a3.39,3.39,0,0,0-.181.955c-.908-.017-1.712-.017-2.586,0v-.163c.314-.023.413-.087.413-.291V336.2c0-.169-.1-.21-.413-.233V335.8h2.481c.076,0,.087.017.1.1l.087.658h-.157l-.058-.128a.676.676,0,0,0-.728-.454h-.5c-.093,0-.128.047-.128.14v1.34h.693c.291,0,.367-.14.431-.379h.146a5.3,5.3,0,0,0,0,.961H584.5c-.064-.239-.14-.384-.431-.384h-.693v1.3c0,.2.035.262.21.262h.32c.437,0,.612-.105.763-.379l.2-.384Z" transform="translate(-456.306 -335.708)" fill="#76777a"/>
        <path id="Path_47" data-name="Path 47" d="M596.636,335.689l-.21.792h-.163c.052-.426-.064-.542-.292-.542h-.5V338.9c0,.2.111.268.484.291v.163c-.565-.017-1.095-.017-1.654,0v-.163c.373-.023.484-.087.484-.291V335.94h-.4c-.286,0-.385.087-.606.542h-.163l.2-.792h.152a2.258,2.258,0,0,0,.594.047h1.322a2.261,2.261,0,0,0,.594-.047Z" transform="translate(-462.93 -335.642)" fill="#76777a"/>
        <path id="Path_48" data-name="Path 48" d="M608.994,339.214v.163c-.524-.017-1.066-.017-1.59,0v-.163c.39-.029.437-.116.35-.349l-.245-.67h-1.223l-.233.693c-.076.221.151.3.53.326v.163c-.431-.017-.932-.017-1.357,0v-.163c.384-.029.53-.145.623-.413l1.06-3.069h.4l1.112,3.017C608.534,339.045,608.587,339.185,608.994,339.214ZM607.439,338l-.571-1.561L606.35,338Z" transform="translate(-469.711 -335.667)" fill="#76777a"/>
        <path id="Path_49" data-name="Path 49" d="M622.032,338.464a3.39,3.39,0,0,0-.181.955c-.909-.017-1.712-.017-2.586,0v-.163c.315-.023.414-.087.414-.291v-2.708c0-.2-.111-.268-.425-.291V335.8c.5.017,1.03.017,1.531,0v.163c-.308.024-.419.087-.419.291v2.708c0,.2.035.262.21.262h.32c.437,0,.612-.105.763-.379l.2-.384Z" transform="translate(-477.907 -335.708)" fill="#76777a"/>
        <path id="Path_50" data-name="Path 50" d="M642.586,335.8v.163c-.355.03-.559.076-.559.315v3.139h-.2l-2.015-3.011v2.528c0,.245.215.292.588.32v.163c-.466-.017-.938-.017-1.374,0v-.163c.349-.029.553-.075.553-.32v-2.6c0-.227-.175-.349-.489-.373V335.8c.378.017.751.017,1.124,0l1.584,2.394v-1.916c0-.239-.21-.285-.588-.315V335.8C641.677,335.819,642.149,335.819,642.586,335.8Z" transform="translate(-489.454 -335.708)" fill="#76777a"/>
        <path id="Path_51" data-name="Path 51" d="M655.4,338.464a3.4,3.4,0,0,0-.18.955c-.909-.017-1.713-.017-2.586,0v-.163c.314-.023.413-.087.413-.291V336.2c0-.169-.1-.21-.413-.233V335.8h2.481c.075,0,.087.017.1.1l.087.658h-.157l-.059-.128a.676.676,0,0,0-.728-.454h-.495c-.093,0-.128.047-.128.14v1.34h.693c.292,0,.367-.14.431-.379H655a5.3,5.3,0,0,0,0,.961h-.146c-.064-.239-.139-.384-.431-.384h-.693v1.3c0,.2.035.262.21.262h.321c.437,0,.611-.105.763-.379l.2-.384Z" transform="translate(-497.405 -335.708)" fill="#76777a"/>
        <path id="Path_52" data-name="Path 52" d="M666.876,338.464a3.39,3.39,0,0,0-.181.955c-.908-.017-1.712-.017-2.586,0v-.163c.314-.023.414-.087.414-.291V336.2c0-.169-.1-.21-.414-.233V335.8h2.481c.076,0,.087.017.1.1l.087.658h-.157l-.058-.128a.676.676,0,0,0-.728-.454h-.5c-.093,0-.128.047-.128.14v1.34h.693c.291,0,.367-.14.431-.379h.146a5.286,5.286,0,0,0,0,.961h-.146c-.064-.239-.14-.384-.431-.384h-.693v1.3c0,.2.035.262.21.262h.32c.437,0,.612-.105.763-.379l.2-.384Z" transform="translate(-504.111 -335.708)" fill="#76777a"/>
        <path id="Path_53" data-name="Path 53" d="M679.79,337.59a1.658,1.658,0,0,1-1.637,1.829c-.3,0-.6-.093-.926-.093a3.98,3.98,0,0,0-.8.093v-.163c.291-.064.413-.116.413-.3v-2.668c0-.192-.087-.3-.391-.321V335.8c.536.023.909,0,1.392,0C679,335.8,679.79,336.332,679.79,337.59Zm-.751.052c0-.985-.355-1.66-1.212-1.66-.058,0-.163,0-.3.012v2.923c0,.268.233.309.431.309C678.783,339.227,679.039,338.539,679.039,337.642Z" transform="translate(-511.309 -335.708)" fill="#76777a"/>
        <path id="Path_54" data-name="Path 54" d="M690.347,337.715c-.548-.256-1.025-.583-1.025-1.176a.985.985,0,0,1,1.118-.961,3.341,3.341,0,0,1,.711.134c.064,0,.111-.012.134-.087h.192l.041.8h-.163c-.233-.495-.536-.641-.833-.641a.538.538,0,0,0-.6.542c0,.344.257.548.693.757.46.216,1.194.489,1.194,1.235a1.113,1.113,0,0,1-1.212,1.042c-.46,0-.681-.233-.868-.233a.209.209,0,0,0-.2.157h-.2l-.052-.85h.186a1.121,1.121,0,0,0,1.025.7.583.583,0,0,0,.658-.588C691.15,338.157,690.842,337.947,690.347,337.715Z" transform="translate(-518.817 -335.577)" fill="#76777a"/>
      </g>
    </g>
  </g>
</svg>
